<svg id="svg" xmlns="http://www.w3.org/2000/svg" xmlns:xlink="http://www.w3.org/1999/xlink" width="400" height="384.4155844155844" viewBox="94, 85, 200,244" version="1.1">
<g id="svgg">
<path id="path0" d="M160.800 96.677 C 153.952 97.892,152.012 98.472,148.986 100.209 C 147.234 101.215,145.335 102.136,144.766 102.256 C 143.673 102.486,141.200 104.560,141.200 105.246 C 141.200 105.470,140.210 106.658,139.000 107.888 C 137.790 109.117,136.800 110.351,136.800 110.629 C 136.800 110.907,136.170 112.449,135.400 114.056 C 134.630 115.663,134.000 117.359,134.000 117.826 C 134.000 118.293,133.663 119.655,133.250 120.854 C 132.314 123.576,131.731 127.183,131.190 133.600 C 130.480 142.031,127.332 144.658,117.244 145.238 C 113.944 145.428,110.142 145.937,107.598 146.530 C 105.289 147.067,102.502 147.635,101.405 147.792 C 98.910 148.149,97.495 148.873,95.649 150.737 C 94.852 151.541,93.494 152.739,92.632 153.398 C 91.770 154.058,90.486 155.498,89.780 156.598 C 89.074 157.699,88.114 158.943,87.648 159.362 C 87.182 159.781,86.800 160.398,86.800 160.732 C 86.800 161.067,86.202 162.614,85.470 164.170 C 84.739 165.727,83.824 167.900,83.436 169.000 C 83.049 170.100,82.432 171.720,82.066 172.600 C 81.455 174.067,81.400 178.972,81.400 231.800 L 81.400 289.400 82.347 291.600 C 82.868 292.810,83.464 294.430,83.670 295.200 C 84.143 296.960,86.035 301.674,86.472 302.180 C 86.652 302.389,86.800 302.859,86.800 303.224 C 86.800 303.589,87.428 304.678,88.196 305.644 C 88.964 306.610,89.594 307.556,89.596 307.747 C 89.598 307.938,90.146 308.748,90.814 309.547 C 92.700 311.804,92.800 311.944,92.800 312.313 C 92.800 312.815,94.567 314.400,95.126 314.400 C 95.387 314.400,95.603 314.535,95.606 314.700 C 95.620 315.372,99.120 318.764,100.800 319.734 C 101.790 320.305,103.050 321.185,103.600 321.688 C 104.822 322.806,109.823 325.434,112.576 326.405 C 113.689 326.797,115.950 327.632,117.600 328.259 L 120.600 329.400 180.000 329.400 L 239.400 329.400 242.000 328.272 C 243.430 327.652,244.960 327.001,245.400 326.826 C 245.840 326.652,247.030 326.124,248.044 325.654 C 249.058 325.184,250.064 324.800,250.280 324.800 C 250.497 324.800,251.107 324.435,251.637 323.988 C 254.406 321.655,256.125 320.400,256.552 320.400 C 256.813 320.400,257.329 319.905,257.697 319.300 C 258.065 318.695,259.370 317.120,260.597 315.800 C 261.824 314.480,262.897 313.040,262.982 312.600 C 263.067 312.160,263.721 309.370,264.434 306.400 C 265.485 302.028,265.764 299.934,265.902 295.400 L 266.072 289.800 267.918 286.100 C 268.933 284.065,269.926 282.400,270.124 282.400 C 270.322 282.400,271.011 281.957,271.654 281.416 C 273.060 280.233,273.711 280.114,281.400 279.634 C 286.633 279.308,287.946 279.077,291.673 277.830 C 294.022 277.044,296.131 276.400,296.357 276.400 C 297.601 276.400,302.700 273.459,303.600 272.223 C 304.150 271.468,304.994 270.747,305.476 270.623 C 306.363 270.394,309.190 267.687,309.197 267.060 C 309.200 266.733,309.781 265.290,310.752 263.200 C 311.008 262.650,311.589 261.616,312.043 260.903 C 312.498 260.189,313.340 257.849,313.914 255.703 L 314.959 251.800 315.102 191.400 C 315.266 122.029,315.253 121.729,311.778 116.200 C 311.087 115.100,310.201 113.143,309.808 111.851 C 309.234 109.961,308.635 109.053,306.747 107.212 C 305.456 105.952,304.400 104.715,304.400 104.461 C 304.400 104.207,304.189 104.000,303.931 104.000 C 303.674 104.000,303.175 103.740,302.824 103.421 C 302.472 103.103,300.851 102.276,299.222 101.582 C 297.593 100.889,295.527 99.856,294.630 99.287 C 290.281 96.527,293.129 96.637,224.000 96.564 C 189.790 96.529,161.350 96.579,160.800 96.677 M283.043 111.179 C 295.625 112.626,298.948 115.998,300.411 128.800 C 300.710 131.420,300.803 150.864,300.709 191.400 L 300.573 250.200 299.664 253.400 C 299.164 255.160,298.656 257.000,298.533 257.488 C 298.411 257.977,297.512 259.032,296.534 259.833 C 295.557 260.634,293.990 262.045,293.053 262.969 C 291.541 264.459,290.923 264.750,287.574 265.545 L 283.800 266.440 221.600 266.310 C 148.082 266.156,156.734 266.880,150.327 260.344 C 147.008 256.957,145.957 255.621,145.714 254.479 C 145.541 253.665,145.400 223.840,145.400 188.200 L 145.400 123.400 146.259 121.541 C 147.014 119.908,147.968 118.737,152.409 113.998 C 153.444 112.893,156.980 111.860,162.000 111.196 C 165.312 110.758,279.243 110.742,283.043 111.179 M221.400 153.625 C 220.740 154.046,219.975 154.502,219.700 154.638 C 219.425 154.774,219.200 155.226,219.200 155.643 C 219.200 156.059,219.065 156.400,218.900 156.400 C 217.249 156.403,216.261 160.577,215.998 168.660 C 215.720 177.201,215.697 177.303,213.613 178.997 C 212.047 180.270,208.793 180.788,200.000 181.164 C 189.117 181.629,188.020 181.977,187.275 185.205 C 185.581 192.540,189.674 195.176,202.800 195.201 C 213.387 195.222,215.820 198.069,216.124 210.800 C 216.305 218.370,217.555 222.272,220.208 223.554 C 220.863 223.871,221.700 224.272,222.066 224.447 C 222.432 224.621,223.331 224.592,224.063 224.382 C 224.795 224.172,225.953 224.000,226.635 224.000 C 229.460 224.000,229.946 222.212,230.392 210.167 C 230.907 196.236,231.714 195.262,242.800 195.181 C 249.472 195.133,252.025 194.671,254.314 193.096 C 255.454 192.313,256.524 191.610,256.693 191.536 C 258.072 190.926,258.466 188.772,257.738 185.815 L 257.012 182.863 253.806 182.051 C 251.392 181.440,248.772 181.188,243.200 181.032 C 230.538 180.677,230.826 180.941,230.536 169.368 C 230.222 156.857,229.496 154.451,225.799 153.672 C 224.699 153.441,223.529 153.163,223.199 153.055 C 222.870 152.947,222.060 153.203,221.400 153.625 M124.201 159.200 C 126.416 159.834,127.272 160.313,128.306 161.500 C 131.236 164.863,130.973 160.755,131.240 207.400 C 131.488 250.740,131.470 250.294,133.194 255.875 C 133.637 257.310,134.000 259.011,134.000 259.655 C 134.000 260.849,135.653 264.538,136.392 264.995 C 136.617 265.134,136.800 265.565,136.800 265.952 C 136.800 266.340,138.148 267.905,139.796 269.429 C 141.444 270.953,142.794 272.429,142.796 272.710 C 142.798 272.990,143.214 273.377,143.720 273.570 C 144.227 273.762,145.446 274.463,146.430 275.127 C 147.415 275.792,149.655 276.721,151.410 277.193 C 154.497 278.022,155.169 278.213,158.600 279.229 C 159.771 279.575,171.524 279.752,202.400 279.886 C 247.391 280.082,248.400 280.129,248.400 282.049 C 248.400 282.242,248.661 282.400,248.980 282.400 C 253.214 282.400,254.814 302.806,250.799 305.600 C 250.641 305.710,250.195 306.430,249.808 307.200 C 248.885 309.034,246.327 311.432,244.918 311.783 C 244.303 311.936,243.004 312.588,242.031 313.231 C 241.059 313.874,239.799 314.406,239.231 314.414 C 238.664 314.422,237.120 314.689,235.800 315.008 C 233.769 315.498,225.715 315.586,183.400 315.576 C 136.931 315.566,130.167 315.442,122.800 314.465 C 119.163 313.982,111.142 311.149,109.744 309.854 C 109.119 309.274,108.381 308.800,108.104 308.800 C 107.827 308.800,107.600 308.587,107.600 308.327 C 107.600 308.067,106.330 306.650,104.777 305.179 C 100.444 301.071,98.884 297.768,96.474 287.600 C 95.513 283.543,95.267 179.689,96.208 175.043 C 96.828 171.982,98.592 167.905,100.734 164.581 C 104.063 159.415,115.655 156.757,124.201 159.200  M -25 0 L -5 0 L -5 20 L -25 20 Z M 405 0 L 425 0 L 425 20 L 405 20 Z" stroke="none"   fill-rule="evenodd"></path>
</g>
</svg>