<svg id="svg" xmlns="http://www.w3.org/2000/svg" xmlns:xlink="http://www.w3.org/1999/xlink" width="400" height="442.42424242424244" viewBox="160, 90, 100,300" version="1.1"><g id="svgg"><path xmlns="http://www.w3.org/2000/svg" id="path0" d="M183.193 83.726 C 182.427 84.236,181.247 84.874,180.572 85.145 C 179.217 85.689,169.200 95.192,169.200 95.935 C 169.200 96.191,169.015 96.400,168.789 96.400 C 168.179 96.400,165.651 98.773,164.315 100.600 C 163.671 101.480,162.306 102.834,161.282 103.610 C 160.257 104.385,158.785 105.856,158.010 106.880 C 157.234 107.903,155.742 109.394,154.693 110.194 C 153.303 111.253,152.396 112.427,151.344 114.524 C 150.551 116.106,149.663 117.539,149.371 117.709 C 148.952 117.952,149.113 118.669,150.133 121.109 C 152.549 126.886,155.810 126.936,162.176 121.293 C 163.263 120.329,164.774 119.222,165.535 118.831 C 166.296 118.441,167.393 117.419,167.972 116.561 C 171.323 111.598,175.340 111.771,178.126 117.000 C 178.966 118.577,178.982 119.023,179.237 147.600 C 179.503 177.372,179.537 178.017,180.962 180.400 C 181.423 181.170,182.155 182.497,182.590 183.350 C 183.806 185.736,184.538 186.052,187.400 185.424 C 190.855 184.667,190.883 184.645,192.200 181.691 L 193.400 179.000 193.652 150.000 C 193.971 113.206,193.489 115.255,202.149 113.875 C 203.452 113.668,203.752 113.873,207.599 117.600 C 215.336 125.096,214.872 124.755,218.310 125.478 C 222.568 126.373,223.234 125.924,224.192 121.510 L 224.863 118.420 223.818 115.710 C 222.393 112.012,222.313 111.889,220.875 111.153 C 218.956 110.172,218.567 109.749,217.419 107.403 C 216.521 105.567,216.036 105.081,214.215 104.190 C 211.905 103.060,211.217 102.416,210.486 100.699 C 210.227 100.094,209.428 99.252,208.708 98.828 C 206.146 97.320,203.987 95.486,203.774 94.638 C 203.655 94.165,202.796 93.295,201.864 92.706 C 200.932 92.116,199.277 90.677,198.185 89.508 C 195.127 86.234,191.426 83.815,188.633 83.265 C 185.354 82.621,184.783 82.669,183.193 83.726 M86.400 181.630 C 85.850 181.819,84.687 182.086,83.815 182.221 C 82.518 182.423,81.719 182.996,79.415 185.374 C 77.867 186.973,75.924 188.780,75.098 189.389 C 74.272 189.999,73.215 191.175,72.750 192.003 C 72.285 192.831,71.005 194.195,69.906 195.033 C 68.807 195.871,67.484 197.196,66.967 197.979 C 66.449 198.761,64.853 200.391,63.420 201.600 C 61.986 202.810,60.811 203.932,60.807 204.094 C 60.803 204.255,58.759 206.415,56.263 208.894 C 50.513 214.606,50.476 214.667,50.349 218.600 C 50.219 222.622,51.184 225.615,53.179 227.380 C 53.937 228.051,55.499 229.590,56.650 230.800 C 57.800 232.010,58.890 233.130,59.071 233.288 C 60.894 234.883,66.402 240.061,69.082 242.700 C 70.926 244.515,72.520 246.000,72.626 246.000 C 72.731 246.000,74.841 248.025,77.315 250.500 C 80.978 254.164,82.416 255.308,85.057 256.657 L 88.301 258.315 91.350 255.334 C 94.873 251.890,94.790 252.162,93.100 249.642 C 92.385 248.575,91.442 247.094,91.005 246.351 C 90.567 245.608,89.785 244.280,89.267 243.400 C 88.157 241.513,86.028 239.200,85.403 239.200 C 84.880 239.200,82.000 236.326,82.000 235.805 C 82.000 235.606,81.540 234.964,80.979 234.378 L 79.958 233.312 80.979 232.098 C 81.540 231.431,82.000 230.717,82.000 230.512 C 82.000 229.700,84.079 228.259,86.084 227.682 C 87.848 227.174,92.886 227.031,116.400 226.820 C 144.318 226.571,144.624 226.559,146.997 225.672 C 149.418 224.767,152.857 221.934,152.610 221.048 C 152.541 220.802,152.182 219.409,151.812 217.953 C 150.480 212.709,151.423 212.848,116.200 212.706 L 87.800 212.592 85.200 211.196 C 82.289 209.633,82.130 209.313,82.047 204.839 L 82.000 202.278 84.125 200.239 C 85.293 199.118,86.868 197.837,87.625 197.394 C 88.403 196.937,89.055 196.206,89.126 195.708 C 89.195 195.225,90.025 193.967,90.969 192.914 C 93.176 190.455,94.438 187.954,94.528 185.861 C 94.607 184.047,95.056 184.405,89.105 181.535 C 88.291 181.142,87.761 181.161,86.400 181.630 M283.200 182.301 C 282.650 182.400,281.698 183.081,281.084 183.814 L 279.968 185.147 280.759 188.236 C 281.618 191.590,281.055 190.843,288.908 199.048 C 292.699 203.009,292.721 203.067,291.942 206.945 C 290.865 212.309,290.384 212.390,259.200 212.417 C 231.111 212.442,228.023 212.595,224.688 214.134 C 223.417 214.720,222.205 215.200,221.996 215.200 C 221.267 215.200,220.302 221.058,220.858 222.104 C 221.507 223.325,227.142 225.868,230.277 226.354 C 232.157 226.646,241.506 226.799,257.277 226.797 C 279.101 226.795,284.085 226.960,288.669 227.834 C 291.577 228.389,293.977 232.493,292.773 234.853 C 291.941 236.483,289.352 239.200,288.630 239.200 C 288.383 239.200,287.835 239.844,287.411 240.631 C 286.988 241.418,285.642 243.199,284.420 244.589 C 282.959 246.252,281.907 247.937,281.342 249.517 L 280.485 251.917 281.307 253.536 C 282.466 255.819,289.200 258.295,289.200 256.438 C 289.200 256.269,290.235 255.621,291.500 254.998 C 294.408 253.565,296.400 252.113,296.400 251.426 C 296.400 251.133,297.134 250.287,298.031 249.546 C 298.928 248.806,300.528 247.325,301.586 246.255 C 302.645 245.186,303.982 243.836,304.559 243.255 C 309.641 238.143,310.842 236.948,311.246 236.600 C 314.860 233.493,320.663 226.834,322.050 224.201 L 323.662 221.141 323.179 218.271 C 322.625 214.980,320.782 212.032,316.600 207.746 C 315.280 206.393,313.634 204.682,312.942 203.943 C 312.251 203.204,311.107 202.060,310.402 201.400 C 309.696 200.740,308.608 199.418,307.985 198.462 C 307.361 197.506,306.255 196.426,305.526 196.062 C 304.643 195.621,303.669 194.505,302.611 192.720 C 301.737 191.246,300.657 189.873,300.211 189.670 C 299.765 189.466,298.897 189.097,298.281 188.850 C 297.666 188.603,296.856 187.832,296.481 187.137 C 294.309 183.110,289.138 181.227,283.200 182.301 M182.919 255.519 C 179.226 259.214,179.206 259.383,179.167 287.218 C 179.120 321.736,179.076 322.155,175.145 325.040 L 173.181 326.482 171.012 324.844 C 169.819 323.943,168.299 322.416,167.634 321.449 C 166.315 319.532,164.219 317.600,163.458 317.600 C 163.194 317.600,162.436 317.105,161.772 316.500 C 161.109 315.895,160.101 315.189,159.532 314.931 C 158.964 314.673,157.891 313.932,157.149 313.285 C 154.703 311.151,154.444 311.216,151.067 314.806 L 148.030 318.034 149.703 321.307 C 151.405 324.637,151.888 325.180,165.400 338.975 C 168.685 342.329,172.542 346.666,172.737 347.226 C 172.812 347.442,173.712 348.250,174.737 349.021 C 175.761 349.792,177.320 351.337,178.200 352.455 C 180.417 355.269,183.666 356.444,188.046 356.015 C 191.875 355.640,191.988 355.571,197.073 350.493 C 199.437 348.132,201.756 345.930,202.227 345.600 C 202.698 345.270,204.033 343.855,205.193 342.457 C 206.352 341.058,207.901 339.559,208.635 339.126 C 209.368 338.694,210.586 337.480,211.340 336.430 C 212.095 335.380,213.857 333.723,215.256 332.748 C 216.821 331.658,217.848 330.645,217.924 330.116 C 218.013 329.498,222.637 324.913,223.473 324.614 C 223.513 324.599,223.927 323.117,224.393 321.319 L 225.240 318.051 224.011 315.163 C 221.885 310.165,218.789 310.174,213.311 315.193 C 211.866 316.517,210.368 317.600,209.980 317.600 C 209.544 317.600,208.804 318.437,208.035 319.800 C 206.021 323.368,204.057 324.537,200.559 324.252 C 196.800 323.945,196.768 323.927,195.176 321.303 L 193.800 319.032 193.574 289.616 C 193.344 259.704,193.268 258.301,191.769 256.314 C 191.168 255.517,186.440 253.600,185.075 253.600 C 184.945 253.600,183.975 254.464,182.919 255.519  M -25 0 L -5 0 L -5 20 L -25 20 Z M 405 0 L 425 0 L 425 20 L 405 20 Z" stroke="none" fill-rule="evenodd" transform="translate(30,0)"/></g></svg>