<svg id="svg" xmlns="http://www.w3.org/2000/svg" xmlns:xlink="http://www.w3.org/1999/xlink" width="400" height="429.6296296296296" viewBox="100, 140, 200,150" version="1.1"><g id="svgg"><path id="path0" d="M241.800 129.188 C 240.184 129.543,238.069 130.403,236.600 131.301 C 236.160 131.570,234.869 132.378,233.732 133.095 C 232.595 133.813,231.456 134.400,231.201 134.400 C 230.682 134.400,227.600 137.388,227.600 137.891 C 227.600 138.068,226.700 138.802,225.600 139.522 C 224.500 140.242,223.600 141.100,223.600 141.428 C 223.600 141.757,223.330 142.129,223.000 142.255 C 222.670 142.382,222.400 142.741,222.400 143.053 C 222.400 143.365,221.995 143.775,221.500 143.966 C 220.455 144.367,218.400 146.195,218.400 146.722 C 218.400 147.156,216.554 149.200,216.162 149.200 C 215.849 149.200,214.453 150.654,212.400 153.116 C 211.630 154.040,210.865 154.797,210.700 154.798 C 210.358 154.800,208.800 156.289,208.800 156.613 C 208.800 156.833,207.268 158.356,205.562 159.833 C 205.033 160.291,203.970 161.380,203.200 162.253 C 202.430 163.125,201.499 163.954,201.131 164.095 C 200.763 164.236,199.863 165.158,199.131 166.145 C 198.399 167.131,197.031 168.431,196.091 169.033 C 195.152 169.634,194.161 170.589,193.891 171.154 C 193.620 171.718,192.460 172.881,191.312 173.737 C 190.165 174.593,189.012 175.777,188.750 176.367 C 188.489 176.958,187.568 177.950,186.703 178.571 C 185.839 179.192,184.619 180.409,183.992 181.274 C 183.365 182.140,182.030 183.475,181.026 184.242 C 180.022 185.009,179.198 185.853,179.195 186.118 C 179.192 186.383,178.347 187.320,177.319 188.200 C 176.290 189.080,175.077 190.223,174.624 190.741 C 172.616 193.034,171.802 193.825,171.066 194.200 C 170.633 194.420,170.081 194.940,169.839 195.355 C 169.205 196.447,168.061 197.601,165.900 199.332 C 164.855 200.169,164.000 201.022,164.000 201.227 C 164.000 201.722,162.800 202.849,161.440 203.632 C 160.836 203.979,159.673 205.149,158.855 206.232 C 158.038 207.314,156.909 208.421,156.348 208.691 C 155.786 208.962,154.834 209.952,154.233 210.891 C 153.631 211.831,152.331 213.199,151.345 213.931 C 150.358 214.663,149.437 215.563,149.297 215.931 C 149.157 216.299,148.410 217.140,147.638 217.800 C 146.866 218.460,145.777 219.519,145.217 220.153 C 143.387 222.227,142.031 223.600,141.813 223.600 C 141.525 223.600,140.000 225.140,140.000 225.431 C 140.000 225.779,136.784 228.800,136.413 228.800 C 136.237 228.800,135.820 229.205,135.488 229.700 C 134.496 231.181,132.557 233.200,132.129 233.200 C 131.647 233.200,129.200 235.827,129.200 236.343 C 129.200 236.704,127.744 237.803,126.200 238.607 C 125.760 238.836,125.165 239.513,124.878 240.112 C 124.591 240.710,124.186 241.200,123.978 241.200 C 123.770 241.200,123.600 241.470,123.600 241.800 C 123.600 242.130,123.330 242.400,123.000 242.400 C 122.670 242.400,122.400 242.568,122.400 242.773 C 122.400 242.978,122.042 243.260,121.604 243.399 C 121.167 243.537,120.159 244.630,119.366 245.826 C 118.572 247.021,117.713 248.000,117.457 248.000 C 116.924 248.000,115.380 249.778,114.203 251.747 C 113.761 252.485,112.643 254.346,111.719 255.882 C 110.794 257.419,109.453 260.369,108.740 262.438 L 107.442 266.200 107.421 283.200 C 107.395 303.890,107.454 304.188,112.332 308.096 C 114.898 310.153,152.434 310.099,153.121 308.038 C 153.201 307.797,153.477 307.597,153.733 307.593 C 153.990 307.590,155.460 306.960,157.000 306.194 C 158.540 305.428,160.084 304.801,160.430 304.800 C 160.777 304.800,161.497 304.328,162.030 303.752 C 162.564 303.176,163.665 302.280,164.477 301.762 C 166.013 300.781,169.600 297.242,169.600 296.707 C 169.600 296.538,169.786 296.400,170.013 296.400 C 170.463 296.400,171.915 294.967,173.798 292.665 C 174.457 291.859,175.156 291.200,175.352 291.200 C 175.812 291.200,177.600 289.275,177.600 288.779 C 177.600 288.571,177.737 288.400,177.903 288.400 C 178.070 288.400,180.067 286.600,182.340 284.400 C 184.614 282.200,186.520 280.400,186.576 280.400 C 186.850 280.400,191.200 275.904,191.200 275.620 C 191.200 275.440,191.605 275.026,192.100 274.702 C 193.098 274.047,196.800 270.475,196.800 270.168 C 196.800 270.060,198.015 268.753,199.500 267.262 C 200.985 265.771,202.590 264.112,203.066 263.576 C 203.542 263.039,204.712 261.848,205.666 260.928 C 206.620 260.009,207.866 258.749,208.436 258.128 C 209.007 257.508,210.177 256.352,211.036 255.559 C 211.896 254.766,212.960 253.650,213.400 253.077 C 213.840 252.505,214.339 252.029,214.509 252.018 C 214.834 251.999,218.525 248.441,226.078 240.864 C 235.962 230.948,237.201 229.667,237.218 229.340 C 237.229 229.153,237.705 228.640,238.277 228.200 C 238.850 227.760,239.966 226.696,240.759 225.836 C 241.552 224.977,242.708 223.807,243.328 223.236 C 243.949 222.666,245.209 221.420,246.128 220.466 C 247.048 219.512,248.236 218.342,248.770 217.866 C 249.303 217.390,251.029 215.740,252.604 214.200 C 254.180 212.660,256.182 210.770,257.052 210.000 C 257.922 209.230,259.065 208.015,259.592 207.300 C 260.119 206.585,260.685 206.000,260.850 206.000 C 261.141 206.000,265.600 201.619,265.600 201.333 C 265.600 201.254,267.400 199.350,269.600 197.101 C 271.800 194.853,273.600 192.876,273.600 192.707 C 273.600 192.538,273.870 192.400,274.200 192.400 C 274.530 192.400,274.800 192.247,274.800 192.060 C 274.800 191.873,276.330 190.162,278.200 188.258 C 280.070 186.354,281.600 184.563,281.600 184.279 C 281.600 183.994,282.224 183.140,282.987 182.381 C 283.750 181.621,284.380 180.857,284.387 180.682 C 284.394 180.506,285.003 179.066,285.739 177.482 C 288.492 171.560,288.238 164.029,285.134 159.538 C 284.730 158.954,284.400 158.272,284.400 158.022 C 284.400 157.504,282.767 155.073,282.274 154.858 C 282.095 154.780,281.772 154.330,281.557 153.858 C 280.693 151.964,279.966 150.965,278.125 149.143 C 277.066 148.095,275.570 146.512,274.800 145.627 C 274.030 144.741,273.273 144.013,273.118 144.008 C 272.705 143.996,270.800 142.024,270.800 141.609 C 270.800 141.413,269.952 140.567,268.916 139.727 C 266.263 137.576,265.600 136.880,265.600 136.246 C 265.600 135.942,264.385 135.098,262.900 134.372 C 261.415 133.645,259.455 132.549,258.546 131.937 C 254.631 129.304,246.985 128.048,241.800 129.188 M252.916 143.252 C 254.650 144.129,255.610 145.003,263.800 153.165 C 273.493 162.825,273.600 163.000,273.600 169.263 C 273.600 174.056,272.785 176.187,270.256 178.003 C 269.310 178.682,268.026 180.045,267.403 181.030 C 266.780 182.016,265.561 183.220,264.694 183.708 C 263.783 184.220,262.801 185.214,262.368 186.063 C 260.633 189.464,255.934 190.773,252.127 188.916 C 250.082 187.919,241.894 180.261,236.767 174.551 C 236.198 173.918,233.935 171.676,231.737 169.568 C 224.434 162.565,224.381 158.761,231.491 151.927 C 233.624 149.877,236.283 147.279,237.400 146.153 C 241.256 142.267,248.348 140.941,252.916 143.252 M215.839 173.389 C 216.477 173.713,217.630 174.523,218.400 175.188 C 219.170 175.854,219.943 176.399,220.117 176.399 C 220.809 176.401,223.062 178.671,223.759 180.068 C 224.010 180.572,224.586 181.169,225.039 181.395 C 225.910 181.829,228.795 184.808,228.798 185.276 C 228.799 185.428,229.788 186.238,230.995 187.076 C 232.203 187.914,233.199 188.780,233.209 189.000 C 233.234 189.561,234.649 191.200,235.108 191.200 C 235.909 191.200,241.506 197.676,242.255 199.471 C 243.981 203.602,243.426 205.871,240.079 208.366 C 239.367 208.898,238.410 209.937,237.953 210.676 C 237.496 211.415,236.592 212.294,235.943 212.630 C 234.423 213.416,233.201 214.466,233.198 214.989 C 233.196 215.535,231.202 217.555,229.435 218.800 C 228.655 219.350,227.898 220.160,227.752 220.600 C 227.607 221.040,226.478 222.404,225.244 223.631 C 224.010 224.859,222.632 226.299,222.181 226.831 C 221.731 227.364,220.921 228.189,220.381 228.664 C 219.842 229.140,218.582 230.400,217.582 231.464 C 216.583 232.529,215.323 233.780,214.782 234.244 C 214.242 234.708,213.317 235.608,212.728 236.244 C 212.138 236.880,210.428 238.530,208.928 239.911 C 205.979 242.626,203.351 245.155,201.663 246.900 C 201.078 247.504,200.415 247.999,200.189 248.000 C 199.673 248.000,198.619 249.217,197.854 250.695 C 197.532 251.318,196.797 252.080,196.221 252.389 C 195.645 252.697,194.507 253.770,193.692 254.774 C 192.877 255.779,191.308 257.523,190.205 258.651 C 189.102 259.779,187.726 261.219,187.146 261.851 C 185.686 263.442,183.618 265.512,182.246 266.755 C 181.612 267.330,180.622 268.324,180.046 268.963 C 179.471 269.603,178.377 270.683,177.617 271.363 C 176.856 272.044,175.326 273.506,174.217 274.614 C 173.107 275.722,171.525 277.126,170.700 277.735 C 169.874 278.343,168.943 279.338,168.629 279.944 C 168.315 280.551,167.222 281.576,166.199 282.222 C 165.177 282.868,163.968 284.059,163.514 284.868 C 163.059 285.677,161.813 286.905,160.744 287.598 C 159.675 288.290,158.800 289.079,158.800 289.350 C 158.800 291.545,151.949 294.879,146.086 295.538 C 139.142 296.318,126.439 296.152,125.092 295.264 C 121.249 292.730,120.649 290.332,120.899 278.498 C 121.199 264.230,121.907 261.585,126.672 256.931 C 128.062 255.572,129.200 254.304,129.200 254.113 C 129.200 253.921,130.100 253.078,131.200 252.239 C 132.300 251.400,133.200 250.578,133.200 250.411 C 133.200 250.111,158.926 224.177,160.820 222.567 C 161.359 222.109,162.626 220.849,163.634 219.767 C 164.643 218.685,166.173 217.135,167.034 216.322 C 167.896 215.508,169.061 214.338,169.623 213.722 C 170.186 213.105,171.034 212.240,171.508 211.800 C 172.713 210.680,196.023 187.377,197.000 186.316 C 197.440 185.838,198.298 184.986,198.907 184.423 C 199.515 183.861,200.685 182.689,201.507 181.819 C 202.328 180.949,203.891 179.419,204.979 178.419 C 206.067 177.419,207.597 175.936,208.379 175.125 C 209.558 173.902,210.209 173.587,212.200 173.274 C 213.520 173.066,214.617 172.875,214.639 172.848 C 214.660 172.822,215.200 173.065,215.839 173.389  M -25 0 L -5 0 L -5 20 L -25 20 Z M 405 0 L 425 0 L 425 20 L 405 20 Z" stroke="none" fill-rule="evenodd"></path></g></svg>