<svg id="svg" xmlns="http://www.w3.org/2000/svg" xmlns:xlink="http://www.w3.org/1999/xlink" width="400" height="493.75" viewBox="160, 135, 140,270" version="1.1">
<g id="svgg">
<path id="path0" d="M216.600 125.870 C 213.086 126.308,209.198 127.402,207.600 128.403 C 206.094 129.345,204.148 130.349,196.864 133.942 C 196.568 134.088,195.938 135.118,195.464 136.231 C 194.989 137.344,194.245 138.782,193.810 139.427 C 191.137 143.398,188.706 150.958,188.224 156.800 C 187.148 169.861,187.831 169.591,155.836 169.621 C 131.173 169.644,128.763 169.818,126.221 171.757 C 125.439 172.353,124.800 173.049,124.800 173.303 C 124.800 173.558,124.134 174.448,123.320 175.282 C 121.420 177.228,121.279 179.118,122.938 180.423 C 123.543 180.898,124.408 182.076,124.861 183.040 C 125.412 184.213,126.269 185.157,127.452 185.896 C 134.879 190.534,135.514 191.916,136.599 205.800 C 137.239 213.987,138.647 226.227,140.580 240.400 C 141.964 250.545,142.721 258.290,143.610 271.400 C 144.467 284.043,146.022 298.127,147.188 303.800 C 148.775 311.527,149.713 320.011,150.393 332.800 C 151.410 351.914,152.200 357.691,154.198 360.636 C 154.677 361.342,155.293 362.523,155.566 363.260 C 155.839 363.997,156.575 365.860,157.202 367.400 C 157.828 368.940,158.457 370.607,158.599 371.104 C 158.741 371.602,159.879 372.708,161.128 373.562 C 162.378 374.417,163.940 375.698,164.600 376.410 C 165.260 377.121,166.700 378.111,167.800 378.608 C 168.900 379.106,171.780 380.455,174.200 381.607 C 181.734 385.194,177.638 384.900,222.600 385.082 C 268.613 385.269,276.840 385.033,280.800 383.417 C 287.185 380.810,291.352 378.655,292.472 377.379 C 293.114 376.647,294.485 375.489,295.518 374.805 C 297.852 373.259,299.073 371.495,302.029 365.400 C 305.827 357.569,306.925 351.038,308.384 327.602 C 308.569 324.631,309.007 319.950,309.357 317.200 C 309.707 314.450,310.535 307.790,311.199 302.400 C 311.862 297.010,312.760 290.440,313.195 287.800 C 314.542 279.616,315.577 270.702,316.206 261.875 C 317.447 244.448,319.126 231.395,321.070 224.057 C 322.381 219.108,322.634 216.934,323.171 206.000 C 323.414 201.050,323.915 195.404,324.284 193.453 L 324.954 189.905 328.377 187.713 C 332.868 184.838,334.686 183.072,335.877 180.425 L 336.856 178.250 335.791 175.743 C 334.921 173.697,334.382 173.018,332.862 172.054 C 328.801 169.477,330.302 169.601,303.051 169.591 C 275.518 169.581,276.434 169.665,273.945 166.950 C 272.796 165.697,271.042 160.182,270.589 156.400 C 269.980 151.306,266.466 141.495,264.648 139.810 C 264.139 139.338,263.215 138.063,262.595 136.976 C 261.030 134.234,260.075 133.257,258.064 132.339 C 257.109 131.903,255.129 130.811,253.664 129.911 C 247.283 125.993,244.930 125.581,229.400 125.660 C 223.020 125.693,217.260 125.787,216.600 125.870 M242.918 143.831 C 249.420 145.515,251.483 148.247,252.395 156.376 C 253.125 162.888,251.732 167.088,248.247 168.874 C 246.487 169.776,213.570 169.788,210.270 168.888 C 202.898 166.877,205.025 147.957,213.000 144.606 C 216.495 143.138,238.086 142.578,242.918 143.831 M300.000 188.038 C 301.210 188.485,302.591 188.948,303.068 189.066 C 306.138 189.827,307.008 194.418,305.743 203.186 C 304.605 211.076,303.720 219.354,302.981 229.000 C 301.686 245.922,299.645 260.289,297.413 268.200 C 297.071 269.413,296.519 276.027,296.011 285.000 C 295.095 301.187,294.014 312.117,292.749 318.000 C 292.300 320.090,291.765 322.610,291.560 323.600 C 290.784 327.356,290.027 334.055,289.594 341.000 C 288.693 355.448,288.308 357.025,284.700 361.015 C 279.893 366.332,281.315 366.201,228.400 366.194 C 175.348 366.188,177.454 366.441,172.744 359.506 C 169.617 354.902,169.337 354.064,169.021 348.367 C 168.402 337.191,166.931 323.821,165.588 317.177 C 163.680 307.728,162.802 299.210,162.003 282.400 C 161.422 270.157,160.145 258.079,159.022 254.200 C 157.325 248.340,155.988 234.993,154.994 214.000 C 154.864 211.250,154.482 206.215,154.145 202.811 C 153.085 192.099,153.501 190.239,157.400 188.244 L 159.400 187.221 228.600 187.223 C 297.156 187.226,297.820 187.234,300.000 188.038 M206.360 225.916 C 202.402 226.066,201.686 226.769,200.365 231.800 L 199.420 235.400 199.275 274.400 C 199.105 319.646,199.143 320.420,201.691 324.246 L 203.321 326.693 206.360 326.964 L 209.400 327.236 211.845 324.596 C 215.425 320.732,215.289 322.804,215.119 274.800 L 214.977 234.600 213.789 231.315 C 212.145 226.772,210.737 225.749,206.360 225.916 M250.160 225.915 C 245.897 226.067,245.272 226.689,244.037 232.000 L 243.153 235.800 243.277 278.600 L 243.400 321.400 245.213 324.000 L 247.027 326.600 250.213 326.926 L 253.400 327.252 255.861 324.623 L 258.321 321.993 258.590 317.497 C 259.345 304.836,258.601 233.507,257.684 230.769 C 256.384 226.886,254.634 225.756,250.160 225.915  M -25 0 L -5 0 L -5 20 L -25 20 Z M 405 0 L 425 0 L 425 20 L 405 20 Z " stroke="none" fill-rule="evenodd"></path>
</g></svg>